<svg width="50" height="50" viewBox="0 0 50 50" fill="none" xmlns="http://www.w3.org/2000/svg">
<rect width="50" height="50" rx="6" fill="#F3F6F9"/>
<path d="M41.5517 23.7931C41.5517 23.7931 38.7069 24.1379 37.4138 19.6552C35.6297 13.47 31.6654 10 25 10C18.3346 10 14.3704 13.47 12.5862 19.6552C11.2931 24.1379 8.44828 23.7931 8.44828 23.7931C8.44828 23.7931 6.89656 27.2414 10.5172 29.3103H9.13794C9.13794 29.3103 9.97639 33.4977 14.1985 34.0669C14.7352 35.2794 16.4139 36.8966 21.5517 36.8966H25H28.4483C33.5861 36.8966 35.2648 35.2793 35.8015 34.0669C40.0236 33.4977 40.8621 29.3103 40.8621 29.3103H39.4828C43.1035 27.2414 41.5517 23.7931 41.5517 23.7931Z" fill="#9D6E48"/>
<path d="M31.8966 23.7931C23.3621 19.4828 23.8793 11.8966 25 10C18.3347 10 14.3703 13.47 12.5862 19.6552C11.2931 24.1379 8.44828 23.7931 8.44828 23.7931C8.44828 23.7931 6.89656 27.2414 10.5172 29.3103H9.13794C9.13794 29.3103 9.97639 33.4977 14.1985 34.0669C14.7352 35.2794 16.4139 36.8966 21.5517 36.8966L31.8966 23.7931Z" fill="#8D5F3D"/>
<path d="M37.7911 47.6577L36.999 41.7173C36.8299 40.4491 35.9725 39.3787 34.7717 38.9369L30.081 37.211C29.5178 37.0233 29.1379 36.4962 29.1379 35.9025V33.6782L32.1087 32.4403C33.6508 31.7978 34.6551 30.2912 34.6551 28.6207V27.931C35.7978 27.931 36.7241 27.0047 36.7241 25.8621C36.7241 24.7194 35.7978 23.7931 34.6551 23.7931V22.4138C34.6551 20.5093 33.1113 18.9655 31.2069 18.9655H18.7931C16.8886 18.9655 15.3448 20.5094 15.3448 22.4138V23.7931C14.2021 23.7931 13.2758 24.7194 13.2758 25.8621C13.2758 27.0047 14.2021 27.931 15.3448 27.931V28.6207C15.3448 30.2912 16.3492 31.7978 17.8912 32.4403L20.862 33.6782V35.9024C20.862 36.4961 20.4821 37.0232 19.9189 37.2109L15.2283 38.9368C14.0275 39.3786 13.1701 40.449 13.0009 41.7172L12.2089 47.6576C12.0435 48.8979 13.0083 50 14.2596 50H25H35.7403C36.9916 50 37.9565 48.8979 37.7911 47.6577Z" fill="#F6B47B"/>
<path d="M20.8621 33.7069V35.9024C20.8621 36.3932 20.602 36.8379 20.1938 37.0835C25.6898 38.0331 28.8312 34.0834 29.1166 33.7068H20.8621V33.7069Z" fill="#E2A071"/>
<path d="M34.6551 23.7931V22.4138C34.6551 20.5093 33.1112 18.9655 31.2069 18.9655H18.7931C16.8886 18.9655 15.3448 20.5094 15.3448 22.4138V23.7931C14.2021 23.7931 13.2758 24.7194 13.2758 25.8621C13.2758 27.0047 14.2021 27.931 15.3448 27.931V28.6207C15.3448 30.2912 16.3492 31.7978 17.8912 32.4403L22.3473 34.2971C23.1878 34.6473 24.0894 34.8276 24.9999 34.8276C25.9104 34.8276 26.8119 34.6473 27.6524 34.2971L32.1087 32.4403C33.6507 31.7978 34.6551 30.2912 34.6551 28.6207V27.931C35.7978 27.931 36.7241 27.0047 36.7241 25.8621C36.7241 24.7194 35.7978 23.7931 34.6551 23.7931Z" fill="#FDC88E"/>
<path d="M20.1724 26.5517C19.7931 26.5517 19.4827 26.2414 19.4827 25.8621V25.1724C19.4827 24.7931 19.7931 24.4828 20.1724 24.4828C20.5517 24.4828 20.862 24.7931 20.862 25.1724V25.8621C20.862 26.2414 20.5517 26.5517 20.1724 26.5517Z" fill="#623F33"/>
<path d="M25 31.3981C23.7739 31.3981 22.627 31.0964 21.8535 30.5701C21.5386 30.356 21.4567 29.9269 21.6713 29.6121C21.8851 29.2976 22.3145 29.2157 22.6293 29.4299C23.1715 29.7986 24.0578 30.0189 25 30.0189C25.9423 30.0189 26.8285 29.7986 27.3707 29.4299C27.6862 29.2151 28.1146 29.2973 28.3287 29.6121C28.5432 29.9269 28.4614 30.356 28.1466 30.5701C27.3731 31.0964 26.2261 31.3981 25 31.3981Z" fill="#E2A071"/>
<path d="M32.917 38.1604L30.4353 42.1309C30.0572 42.7358 29.3942 43.1033 28.6808 43.1033H21.3191C20.6058 43.1033 19.9427 42.7358 19.5646 42.1309L17.0831 38.1604C16.8838 37.8415 16.4658 37.7411 16.1434 37.9345L13.8781 39.2937C13.5473 39.4922 13.4436 39.9235 13.6481 40.2506L16.7241 45.1723H33.2758L36.3519 40.2505C36.5564 39.9234 36.4527 39.4922 36.1219 39.2937L33.8565 37.9344C33.5342 37.7411 33.1162 37.8416 32.917 38.1604Z" fill="#F23F44"/>
<path d="M33.2758 45.1724H16.7241V50H33.2758V45.1724Z" fill="#FF4F4F"/>
<path d="M18.9651 31.0106C18.4063 30.4115 18.1035 29.6209 18.1035 28.8016V21.4859C20.4994 23.165 23.8138 24.4781 30 24.8276L29.3966 22.7586C29.3966 22.7586 25.107 20.3471 23.0172 18.9655H18.7931C18.5567 18.9655 18.3263 18.9903 18.1034 19.0357V19.035C18.0503 19.0458 17.9978 19.058 17.9456 19.0712C17.9408 19.0724 17.9358 19.0733 17.931 19.0745C17.9298 19.0748 17.9287 19.0758 17.9275 19.0761C16.4422 19.4603 15.3448 20.8084 15.3448 22.4138V23.7931C14.2021 23.7931 13.2758 24.7194 13.2758 25.8621C13.2758 27.0047 14.2021 27.931 15.3448 27.931V28.6207C15.3448 30.2912 16.3492 31.7978 17.8912 32.4403L22.3472 34.2971C22.5653 34.3879 22.7879 34.4662 23.0133 34.5341C21.044 33.0934 19.7331 31.8341 18.9651 31.0106Z" fill="#F6B47B"/>
<path d="M29.8276 26.5517C29.4483 26.5517 29.1379 26.2414 29.1379 25.8621V25.1724C29.1379 24.7931 29.4483 24.4828 29.8276 24.4828C30.2069 24.4828 30.5173 24.7931 30.5173 25.1724V25.8621C30.5173 26.2414 30.2069 26.5517 29.8276 26.5517Z" fill="#623F33"/>
<path d="M31.8966 23.7931L31.2069 22.4138C31.2069 22.4138 33.3891 23.7905 34.7414 23.7905V18.6207H18.4615C21.0673 21.1156 24.3162 23.7931 31.8966 23.7931Z" fill="#9D6E48"/>
<path d="M31.8965 23.7931C28.9989 22.3297 27.1456 20.4885 26.0041 18.6207H18.4614C21.0673 21.1156 24.3162 23.7931 31.8965 23.7931Z" fill="#8D5F3D"/>
</svg>
