<svg width="50" height="50" viewBox="0 0 50 50" fill="none" xmlns="http://www.w3.org/2000/svg">
<rect width="50" height="50" rx="6" fill="#F3F6F9"/>
<g clip-path="url(#clip0_3_176)">
<path d="M38.0507 45.6889L37.9191 45.2383C37.8556 45.0206 37.6435 44.8872 37.4254 44.9149L37.2866 43.8738L36.9991 41.7173C36.9991 41.7172 36.9991 41.7172 36.9991 41.7171L36.9658 41.4666C36.8147 40.3336 36.1127 39.3495 34.9568 38.7716L33.6021 38.0942C33.3827 37.9846 33.2153 38.1257 33.0541 38.3049L30.0813 37.2111C29.5181 37.0234 29.1382 36.4963 29.1382 35.9026V33.6783L32.109 32.4404C33.6508 31.7978 34.6552 30.2912 34.6552 28.6207V22.4138C34.6552 20.5093 33.1113 17.5862 31.2069 17.5862H18.7931C16.8886 17.5862 15.3448 20.5093 15.3448 22.4138V28.6207C15.3448 30.2911 16.3492 31.7978 17.8912 32.4404L20.8621 33.6782V35.9024C20.8621 36.4961 20.4821 37.0232 19.919 37.211L16.9461 38.3047C16.785 38.1255 16.6175 37.9843 16.3981 38.0941L15.0434 38.7714C13.8874 39.3494 13.1855 40.3335 13.0345 41.4664L13.0011 41.7169C13.0011 41.717 13.0011 41.7171 13.0011 41.7172L12.7136 43.8736L12.5748 44.9147C12.3567 44.887 12.1447 45.0204 12.0811 45.2381L11.9496 45.6887C11.8791 45.93 12.0177 46.1826 12.259 46.253L12.3913 46.2916L12.2092 47.6575C12.0435 48.8979 13.0084 50 14.2596 50H35.7403C36.9916 50 37.9565 48.8979 37.7911 47.6576L37.609 46.2917L37.7414 46.2531C37.9826 46.1828 38.1211 45.9302 38.0507 45.6889Z" fill="#F6B47B"/>
<path d="M20.8621 33.5345V35.9025C20.8621 36.3933 20.602 36.838 20.1938 37.0836C25.6898 38.0332 28.8311 33.911 29.1166 33.5345H20.8621Z" fill="#E2A071"/>
<path d="M32.1088 32.4404L27.6524 34.2972C26.8119 34.6473 25.9104 34.8277 24.9999 34.8277C24.0894 34.8277 23.1879 34.6473 22.3473 34.2972L17.8912 32.4404C16.3492 31.7978 15.3448 30.2912 15.3448 28.6207V22.4138C15.3448 20.5094 16.8887 17.5862 18.7931 17.5862H31.2069C33.1113 17.5862 34.6552 20.5094 34.6552 22.4138V28.6207C34.6552 30.2912 33.6508 31.7979 32.1088 32.4404Z" fill="#FDC88E"/>
<path d="M20.1724 26.5517C19.7931 26.5517 19.4828 26.2414 19.4828 25.8621V25.1724C19.4828 24.7931 19.7931 24.4828 20.1724 24.4828C20.5518 24.4828 20.8621 24.7931 20.8621 25.1724V25.8621C20.8621 26.2414 20.5518 26.5517 20.1724 26.5517Z" fill="#623F33"/>
<path d="M29.8276 26.5517C29.4483 26.5517 29.1379 26.2414 29.1379 25.8621V25.1724C29.1379 24.7931 29.4483 24.4828 29.8276 24.4828C30.2069 24.4828 30.5173 24.7931 30.5173 25.1724V25.8621C30.5173 26.2414 30.2069 26.5517 29.8276 26.5517Z" fill="#623F33"/>
<path d="M25 31.3981C23.7739 31.3981 22.627 31.0964 21.8535 30.5701C21.5386 30.356 21.4567 29.9269 21.6713 29.6121C21.8851 29.2976 22.3145 29.2157 22.6293 29.4299C23.1715 29.7986 24.0578 30.0189 25 30.0189C25.9423 30.0189 26.8285 29.7986 27.3707 29.4299C27.6862 29.2151 28.1146 29.2973 28.3287 29.6121C28.5432 29.9269 28.4614 30.356 28.1466 30.5701C27.3731 31.0964 26.2261 31.3981 25 31.3981Z" fill="#E2A071"/>
<path d="M15.3448 23.2018V28.6208C15.3448 30.2912 16.3492 31.798 17.8912 32.4405L22.3473 34.2972C22.5654 34.3881 22.7879 34.4663 23.0134 34.5342C21.0441 33.0936 19.7332 31.8342 18.9651 31.0107C18.4063 30.4116 18.1035 29.621 18.1035 28.8017V24.9473C20.0776 24.2582 25.1849 21.995 25.2558 18.2761C25.2625 17.9246 25.2572 17.6112 25.2416 17.3318C21.9959 21.7685 17.4992 22.9319 15.3448 23.2018Z" fill="#F6B47B"/>
<path d="M36.9397 32.939C36.9397 31.4777 35.7349 30.8602 35.7349 29.6158C35.7349 28.3714 37.3003 28.0366 37.3003 26.1711C37.3003 24.9241 36.7446 23.9559 36.376 23.0636C38.4776 13.9546 30.5938 10 28.4483 10C26.2069 10 25 10.6897 25 10.6897C25 10.6897 23.7931 10 21.5518 10C19.4062 10 11.5224 13.9546 13.6241 23.0635C13.2555 23.9558 12.6998 24.924 12.6998 26.171C12.6998 28.0366 14.2651 28.3713 14.2651 29.6157C14.2651 30.8601 13.0604 31.4777 13.0604 32.9389C13.0604 34.4002 14.2207 35.1078 14.5977 36.2072C14.7701 36.71 14.569 38.2184 14.569 38.2184C14.569 38.2184 15.7974 36.1915 15.1509 34.3295C14.5043 32.4675 15.2543 32.2672 15.8405 31.4541C16.7242 30.2284 16.6043 28.8534 15.8827 27.517C15.4167 26.6539 15.5393 25.8202 16.1925 25.2397C16.88 24.6289 17.0412 23.5747 17.0422 23.5679C20.3072 22.6121 25 20.6972 25 17.5862C25 20.6972 29.6929 22.6121 32.9578 23.5679C32.9588 23.5746 33.12 24.6289 33.8074 25.2397C34.4606 25.8202 34.5833 26.6539 34.1173 27.517C33.3956 28.8534 33.2758 30.2285 34.1594 31.4541C34.7456 32.2672 35.4956 32.4675 34.8491 34.3295C34.2025 36.1914 35.431 38.2184 35.431 38.2184C35.431 38.2184 35.2299 36.7099 35.4023 36.2072C35.7793 35.1078 36.9397 34.4002 36.9397 32.939Z" fill="#6E4439"/>
<path d="M36.9657 41.4667C36.8146 40.3337 36.1127 39.3496 34.9567 38.7717L33.6021 38.0943C33.3516 37.9692 33.1689 38.1707 32.986 38.3827C29.3105 42.644 25.0002 44.4833 25.0002 44.4833H25.0002H25.0001C25.0001 44.4833 20.6898 42.644 17.0143 38.3827C16.8315 38.1707 16.6486 37.9692 16.3983 38.0943L15.0436 38.7717C13.8876 39.3497 13.1857 40.3338 13.0346 41.4667L12.4733 45.6767C14.295 46.304 17.4138 47.2416 17.4138 47.2416V50.0002H32.5862V47.2416C32.5862 47.2416 35.705 46.304 37.527 45.6767L36.9657 41.4667Z" fill="#57B9DD"/>
<path d="M17.3967 47.0307C17.3546 46.2106 17.0808 45.4182 16.5862 44.7587L13.3485 40.4418C13.1922 40.7637 13.0824 41.1063 13.0343 41.4665L12.4877 45.5666L17.3967 47.0307Z" fill="#43A0C5"/>
<path d="M11.9493 45.689C11.8789 45.9303 12.0174 46.183 12.2586 46.2533L17.4138 47.7571V47.2415C17.4138 46.9157 17.3626 46.5966 17.2878 46.2835L12.6451 44.9292C12.4039 44.8588 12.1513 44.9973 12.081 45.2385L11.9493 45.689Z" fill="#258CAC"/>
<path d="M32.6033 47.0307C32.6454 46.2106 32.9192 45.4182 33.4138 44.7587L36.6515 40.4418C36.8078 40.7637 36.9176 41.1063 36.9657 41.4665L37.5123 45.5666L32.6033 47.0307Z" fill="#43A0C5"/>
<path d="M38.0507 45.689C38.1212 45.9303 37.9826 46.183 37.7414 46.2533L32.5862 47.7571V47.2415C32.5862 46.9157 32.6374 46.5966 32.7122 46.2835L37.355 44.9292C37.5962 44.8588 37.8488 44.9973 37.9191 45.2385L38.0507 45.689Z" fill="#258CAC"/>
<path d="M21.5517 10C19.4062 10 11.5225 13.9546 13.6241 23.0635C13.2555 23.9558 12.6998 24.924 12.6998 26.171C12.6998 28.0366 14.2651 28.3713 14.2651 29.6157C14.2651 30.8601 13.0604 31.4777 13.0604 32.9389C13.0604 34.4002 14.2207 35.1078 14.5977 36.2072C14.7701 36.71 14.569 38.2184 14.569 38.2184C14.569 38.2184 15.7974 36.1915 15.1509 34.3295C14.5043 32.4675 15.2543 32.2672 15.8405 31.4541C16.7242 30.2284 16.6043 28.8534 15.8827 27.517C15.4167 26.6539 15.5393 25.8202 16.1925 25.2397C16.88 24.6289 17.0412 23.5747 17.0422 23.5679L17.0415 23.5678C17.0417 23.5678 17.0419 23.5677 17.0422 23.5677C15.0939 14.6007 22.8614 10.6968 25 10.69V10.6897C25 10.6897 23.7931 10 21.5517 10Z" fill="#5E342E"/>
</g>
<defs>
<clipPath id="clip0_3_176">
<rect width="40" height="40" fill="white" transform="translate(5 10)"/>
</clipPath>
</defs>
</svg>
