<svg width="17" height="17" viewBox="0 0 17 17" fill="none" xmlns="http://www.w3.org/2000/svg">
<path fill-rule="evenodd" clip-rule="evenodd" d="M8.50001 12.7501L5.60691 14.271C5.26064 14.4531 4.83237 14.32 4.65033 13.9737C4.57783 13.8358 4.55282 13.6779 4.57915 13.5243L5.13169 10.3028L2.79112 8.02133C2.51098 7.74827 2.50525 7.29981 2.77832 7.01968C2.88705 6.90813 3.02953 6.83553 3.18369 6.81313L6.41827 6.34312L7.86482 3.41208C8.03796 3.06128 8.46269 2.91725 8.8135 3.09038C8.95319 3.15932 9.06626 3.27239 9.1352 3.41208L10.5818 6.34312L13.8163 6.81313C14.2035 6.86938 14.4717 7.22882 14.4155 7.61596C14.3931 7.77012 14.3205 7.91259 14.2089 8.02133L11.8683 10.3028L12.4209 13.5243C12.487 13.9099 12.228 14.2761 11.8425 14.3422C11.6889 14.3686 11.531 14.3435 11.3931 14.271L8.50001 12.7501Z" fill="#FFA800"/>
</svg>
